<svg width="82" height="82" viewBox="0 0 82 82" fill="none" xmlns="http://www.w3.org/2000/svg">
<g clip-path="url(#clip0_36_245)">
<path d="M80.984 43.4786C80.1421 41.9268 80.1421 40.0738 80.9837 38.5218C82.9118 34.966 82.0308 30.5362 78.8887 27.989C77.5173 26.8772 76.8081 25.1651 76.9915 23.4093C77.4122 19.3864 74.9031 15.631 71.0254 14.48C69.3328 13.9778 68.0226 12.6674 67.5202 10.975C66.3692 7.09748 62.614 4.58736 58.591 5.00873C56.8343 5.19226 55.1229 4.48309 54.0111 3.11168C51.4638 -0.0307312 47.0341 -0.911907 43.4783 1.01621C41.9262 1.85766 40.0734 1.85766 38.5213 1.01621C34.9658 -0.911747 30.5361 -0.0308916 27.9883 3.11136C26.8769 4.48277 25.1634 5.19242 23.4087 5.0084C19.3856 4.58736 15.6304 7.09699 14.4794 10.9747C13.9771 12.667 12.6669 13.9774 10.9744 14.4797C7.09669 15.6307 4.58737 19.3859 5.00794 23.4088C5.19148 25.1646 4.48247 26.8767 3.1109 27.9885C-0.0310369 30.5358 -0.912213 34.9655 1.0159 38.5213C1.85752 40.0732 1.85752 41.9264 1.0159 43.4783C-0.912213 47.034 -0.031197 51.4638 3.1109 54.0111C4.48231 55.1229 5.19148 56.8349 5.0081 58.5907C4.58737 62.6137 7.09653 66.369 10.9744 67.52C12.6669 68.0223 13.9771 69.3327 14.4795 71.025C15.6306 74.9027 19.3854 77.4127 23.4087 76.9913C25.1658 76.8078 26.8769 77.5169 27.9887 78.8884C30.5358 82.0304 34.9657 82.9115 38.5215 80.9833C40.0735 80.1419 41.9264 80.1419 43.4784 80.9833C44.7427 81.6688 46.117 81.9992 47.4783 81.9992C49.9458 81.9992 52.3695 80.9132 54.0114 78.8884C55.1229 77.5169 56.8367 76.8081 58.591 76.9913C58.8857 77.0221 59.1785 77.0373 59.4693 77.0373C63.1496 77.0371 66.4536 74.6188 67.5204 71.0249C68.0228 69.3325 69.3328 68.0221 71.0255 67.5197C74.9032 66.3687 77.4125 62.6135 76.9918 58.5905C76.8083 56.8348 77.5173 55.1227 78.8888 54.0109C82.0309 51.4639 82.9121 47.0344 80.984 43.4786ZM78.1678 45.0058C79.361 47.206 78.8158 49.9471 76.8714 51.5235C74.6553 53.3203 73.5092 56.087 73.8058 58.9246C74.0661 61.4139 72.5134 63.7378 70.1138 64.45C67.3788 65.2618 65.2612 67.3794 64.4494 70.1145C63.7373 72.5138 61.416 74.0678 58.924 73.8064C56.0864 73.51 53.3198 74.6559 51.5231 76.8722C49.9466 78.8166 47.2056 79.3616 45.0052 78.1686C43.751 77.4884 42.3758 77.1486 40.9999 77.1486C39.6243 77.1486 38.2484 77.4887 36.9945 78.1686C34.7943 79.3619 32.0531 78.8166 30.4768 76.8723C28.6802 74.6561 25.9139 73.5097 23.0756 73.8066C20.5869 74.0675 18.2626 72.5143 17.5502 70.1147C16.7384 67.3796 14.6208 65.262 11.8858 64.4502C9.48637 63.7379 7.9335 61.4141 8.19376 58.9248C8.49052 56.0873 7.34429 53.3206 5.12822 51.5238C3.18377 49.9476 2.6386 47.2065 3.83176 45.006C5.19164 42.498 5.19164 39.5034 3.83176 36.995C2.6386 34.7948 3.18377 32.0537 5.12822 30.4773C7.34429 28.6805 8.49036 25.9138 8.19376 23.0762C7.9335 20.5869 9.48621 18.263 11.8858 17.5508C14.6208 16.739 16.7384 14.6214 17.5502 11.8861C18.2623 9.48684 20.5848 7.93333 23.0756 8.19422C25.9132 8.49083 28.6799 7.34475 30.4765 5.12852C32.0529 3.18407 34.7942 2.63922 36.9944 3.83206C39.5024 5.1921 42.4968 5.1921 45.0052 3.83206C47.2054 2.63874 49.9466 3.18407 51.5229 5.12836C53.3195 7.34459 56.0846 8.49067 58.9242 8.19406C61.4132 7.93429 63.7373 9.48636 64.4494 11.886C65.2612 14.6211 67.3788 16.7387 70.1138 17.5504C72.5132 18.2626 74.0661 20.5864 73.8058 23.0757C73.5091 25.9132 74.6553 28.6799 76.8714 30.4767C78.8158 32.0529 79.361 34.794 78.1678 36.9945C76.808 39.5029 76.808 42.4976 78.1678 45.0058Z" fill="#4295E4"/>
<path d="M56.3128 12.4927C50.3161 9.26881 43.2806 8.01447 36.5031 8.96067C29.4955 9.9389 23.1399 13.1076 18.1234 18.1241C13.3539 22.8936 10.2365 28.9178 9.10851 35.5452C8.00536 42.0261 8.86988 48.5947 11.6085 54.541C11.8787 55.1273 12.4583 55.4729 13.0642 55.4729C13.2884 55.4729 13.5162 55.4257 13.7333 55.3257C14.5368 54.9556 14.888 54.0044 14.5179 53.2009C9.43635 42.168 11.7954 28.9819 20.3883 20.3889C29.4153 11.3624 43.5638 9.27522 54.7958 15.314C55.5748 15.7329 56.5461 15.4409 56.9648 14.6619C57.3837 13.8827 57.0918 12.9116 56.3128 12.4927Z" fill="#4295E4"/>
<path d="M20.4565 61.6795L20.3884 61.6114C19.7629 60.986 18.7491 60.986 18.1234 61.6114C17.4979 62.2368 17.4979 63.2509 18.1234 63.8765L18.1916 63.9445C18.5044 64.2573 18.9142 64.4136 19.324 64.4136C19.7339 64.4136 20.1437 64.2573 20.4565 63.9445C21.0819 63.3191 21.0819 62.305 20.4565 61.6795Z" fill="#4295E4"/>
<path d="M69.3925 25.4753C68.9676 24.6992 67.9939 24.4147 67.2187 24.8393C66.4428 25.264 66.158 26.2373 66.5826 27.0131C72.7531 38.2864 70.7087 52.5137 61.6112 61.6113C53.0437 70.1789 40.3429 72.5636 29.2546 67.6868C28.4447 67.3308 27.5 67.6984 27.1438 68.5081C26.7876 69.3177 27.1553 70.2628 27.9649 70.619C32.0934 72.4348 36.5086 73.3568 40.9697 73.3568C42.8855 73.3568 44.8099 73.1867 46.7239 72.8445C53.2447 71.6781 59.1757 68.577 63.8764 63.8764C68.9228 58.8301 72.0971 52.4341 73.0558 45.3802C73.9832 38.555 72.6823 31.4861 69.3925 25.4753Z" fill="#4295E4"/>
<path d="M63.9185 18.1658L63.8767 18.124C63.2511 17.4986 62.2374 17.4986 61.6116 18.124C60.9862 18.7494 60.9862 19.7635 61.6116 20.389L61.6536 20.4308C61.9664 20.7436 62.3762 20.8999 62.786 20.8999C63.1959 20.8999 63.6057 20.7436 63.9185 20.4308C64.5439 19.8054 64.5439 18.7913 63.9185 18.1658Z" fill="#4295E4"/>
<path d="M61.3402 42.6017C61.3402 40.7859 60.2546 39.2197 58.6989 38.5154C58.9093 37.9963 59.0262 37.4297 59.0262 36.8361C59.0262 34.3635 57.0145 32.3518 54.5419 32.3518H47.5772L48.0344 30.9938C48.7567 28.8496 48.5841 26.561 47.5487 24.5493C46.5131 22.5376 44.7508 21.0674 42.5863 20.4093C41.7709 20.1612 40.9043 20.5954 40.6143 21.3966L38.1628 28.1722C37.5263 29.9312 36.271 31.3926 34.6281 32.2872L32.6811 33.3475C32.0342 32.7313 31.16 32.3518 30.1982 32.3518H23.3027C21.3158 32.3518 19.6992 33.9682 19.6992 35.9553V55.0138C19.6992 57.0008 21.3158 58.6173 23.3027 58.6173H30.1982C31.3004 58.6175 32.2879 58.1197 32.9495 57.3376L33.6813 57.6246C35.3612 58.2835 37.128 58.6176 38.9328 58.6176H52.5316C55.0042 58.6176 57.016 56.6059 57.016 54.1333C57.016 53.529 56.8952 52.9527 56.6776 52.4262C58.2002 51.7085 59.2569 50.1595 59.2569 48.3676C59.2569 47.7386 59.1262 47.1397 58.8912 46.5958C60.3432 45.8524 61.3402 44.3418 61.3402 42.6017ZM30.5988 55.0138C30.5988 55.2345 30.4192 55.4142 30.1984 55.4142H23.3029C23.082 55.4142 22.9025 55.2346 22.9025 55.0138V35.9553C22.9025 35.7346 23.082 35.5549 23.3029 35.5549H30.1984C30.3611 35.5549 30.5008 35.6527 30.5634 35.7924C30.572 35.8345 30.5829 35.8763 30.5951 35.918C30.5962 35.9304 30.5988 35.9425 30.5988 35.9553V55.0138ZM56.8558 43.8833H49.6486C48.7643 43.8833 48.0471 44.6003 48.0471 45.4848C48.0471 46.3694 48.7643 47.0864 49.6486 47.0864H54.7723C55.4788 47.0864 56.0536 47.6612 56.0536 48.3676C56.0536 49.0741 55.4788 49.6489 54.7723 49.6489H49.6486C48.7643 49.6489 48.0471 50.3659 48.0471 51.2505C48.0471 52.135 48.7643 52.852 49.6486 52.852H52.5314C53.2379 52.852 53.8127 53.4268 53.8127 54.1333C53.8127 54.8397 53.2379 55.4145 52.5314 55.4145H51.3463H38.9326C37.5298 55.4145 36.1565 55.1547 34.8507 54.6427L33.8017 54.2313V36.3845L36.16 35.1004C38.4909 33.8311 40.272 31.7577 41.175 29.262L43.0325 24.1284C43.7307 24.6002 44.3033 25.2428 44.701 26.0154C45.3366 27.2502 45.4425 28.6551 44.9992 29.9714L43.8302 33.4421C43.6655 33.9309 43.7464 34.4689 44.0472 34.8877C44.348 35.3065 44.8321 35.5549 45.3478 35.5549H54.5419C55.2483 35.5549 55.8231 36.1297 55.8231 36.8361C55.8231 37.5426 55.2483 38.1174 54.5419 38.1174H49.6486C48.7643 38.1174 48.0471 38.8344 48.0471 39.7189C48.0471 40.6035 48.7643 41.3205 49.6486 41.3205L56.8558 41.3206C57.5623 41.3206 58.1371 41.8954 58.1371 42.6019C58.1371 43.3083 57.5623 43.8833 56.8558 43.8833Z" fill="#4295E4"/>
</g>
<defs>
<clipPath id="clip0_36_245">
<rect width="82" height="82" fill="white"/>
</clipPath>
</defs>
</svg>
