<svg width="51" height="42" viewBox="0 0 51 42" fill="none" xmlns="http://www.w3.org/2000/svg">
<path d="M18.3452 13.0722H22.4V21.3728C20.1254 23.9242 16.8618 25.2 12.6093 25.2C9.01603 25.2 6.01618 24.0071 3.60971 21.6213C1.20324 19.2355 0 16.2532 0 12.6745C0 9.09585 1.21972 6.09704 3.65916 3.6781C6.13156 1.22603 9.11493 0 12.6093 0C16.1036 0 19.0045 1.01065 21.3121 3.03195L19.1364 6.16331C17.4552 4.73846 15.3948 4.02603 12.9554 4.02603C10.483 4.02603 8.40617 4.83786 6.72494 6.46153C5.07667 8.05206 4.25254 10.1231 4.25254 12.6745C4.25254 15.226 5.0437 17.297 6.62604 18.8876C8.24135 20.4449 10.2358 21.2236 12.6093 21.2236C14.9168 21.2236 16.8288 20.7266 18.3452 19.7325V13.0722Z" fill="#161C24"/>
<line x1="27.0996" y1="2.18557e-08" x2="27.0996" y2="16.8" stroke="#161C24"/>
<line x1="27.0996" y1="16.8" x2="27.0996" y2="33.6" stroke="#4295E4"/>
<path d="M41.4202 42C37.4871 42 33.9473 40.775 30.8008 38.325L33.2917 34.3219C36.0886 36.4656 38.8418 37.5375 41.5513 37.5375C42.6875 37.5375 43.5834 37.275 44.2389 36.75C44.9381 36.1813 45.2877 35.4813 45.2877 34.65C45.2877 33.425 43.6708 32.3313 40.4369 31.3688C40.3495 31.325 40.2402 31.2813 40.1091 31.2375C40.0217 31.1938 39.9562 31.1719 39.9125 31.1719C34.8431 29.8156 32.3085 27.5188 32.3085 24.2813C32.3085 22.0063 33.1606 20.1907 34.865 18.8344C36.613 17.4782 38.9074 16.8 41.7479 16.8C44.5448 16.8 47.2106 17.6313 49.7452 19.2938L47.8442 23.1C45.8777 21.7875 43.7145 21.1313 41.3546 21.1313C38.6014 21.1313 37.2249 22.0063 37.2249 23.7563C37.2249 24.5 37.4871 25.0469 38.0115 25.3969C38.5796 25.7031 39.4973 26.0094 40.7647 26.3156C42.6875 26.8406 44.3044 27.3656 45.6155 27.8906C46.4895 28.2844 47.2543 28.7 47.9098 29.1375C49.5704 30.275 50.4008 32.0031 50.4008 34.3219C50.4008 36.5969 49.5486 38.4563 47.8442 39.9C46.1836 41.3 44.0422 42 41.4202 42Z" fill="#4295E4"/>
</svg>
