<svg width="82" height="82" viewBox="0 0 82 82" fill="none" xmlns="http://www.w3.org/2000/svg">
<path d="M71.5585 34.7609C71.3654 34.3918 70.9829 34.1603 70.5662 34.1606H11.4378C11.0212 34.1606 10.6392 34.3919 10.4461 34.7609L3.0488 48.8451C2.76084 49.3931 2.97161 50.0709 3.51982 50.359C3.68062 50.4436 3.85951 50.4876 4.04113 50.4876H10.3193V75.2157C10.3196 75.8347 10.8213 76.3365 11.4403 76.3368H70.5655C71.1847 76.3368 71.6866 75.8349 71.6866 75.2157V50.4876H77.9648C78.5839 50.4876 79.0859 49.9855 79.0857 49.3664C79.0857 49.1847 79.0415 49.0058 78.9571 48.8451L71.5585 34.7609ZM12.1156 36.4028H39.1429L32.9288 48.2454H5.89446L12.1156 36.4028ZM12.557 50.4876H33.6015C34.0184 50.4876 34.4008 50.2565 34.5945 49.8873L39.8783 39.8295V74.0985H12.557V50.4876ZM69.4445 74.0966H42.1218V39.8276L47.407 49.8873C47.6003 50.2565 47.9826 50.4878 48.3993 50.4876H69.4445V74.0966ZM49.0726 48.2454L42.8585 36.4028H69.889L76.1069 48.2454H49.0726Z" fill="#4295E4" stroke="#4295E4" stroke-width="0.5"/>
<path d="M41.0005 30.6622C47.9044 30.6622 53.501 25.0655 53.501 18.1616C53.501 11.2578 47.9044 5.66113 41.0005 5.66113C34.0967 5.66113 28.5 11.2578 28.5 18.1616V18.1623C28.5078 25.0628 34.1 30.6548 41.0005 30.6622ZM41.0005 7.90332C46.666 7.90332 51.2588 12.4961 51.2588 18.1616C51.2588 23.8272 46.666 28.42 41.0005 28.42C35.3353 28.42 30.7425 23.8275 30.7422 18.1623C30.7486 12.4993 35.3376 7.91005 41.0005 7.90332Z" fill="#4295E4" stroke="#4295E4" stroke-width="0.5"/>
<path d="M42.1412 21.2835H37.0938C36.4746 21.2835 35.9727 21.7854 35.9727 22.4046C35.9727 23.0237 36.4746 23.5257 37.0938 23.5257H42.1387C44.6912 23.4956 46.7361 21.402 46.706 18.8494C46.6764 16.3393 44.6488 14.3116 42.1387 14.2821H39.8004L40.5794 13.5031C41.0253 13.0736 41.0386 12.3639 40.609 11.9179C40.1795 11.472 39.4698 11.4587 39.0238 11.8882C39.0145 11.8972 39.0054 11.9063 38.9962 11.9156L36.3056 14.6063C35.8678 15.0435 35.8673 15.753 36.3047 16.1908C36.305 16.1912 36.3053 16.1915 36.3056 16.1918L38.9962 18.8824C39.4341 19.3203 40.1439 19.3203 40.5818 18.8824C41.0197 18.4446 41.0197 17.7347 40.5818 17.2969L39.8022 16.5172H42.1411C43.4553 16.5389 44.5032 17.6217 44.4816 18.9359C44.4606 20.2197 43.4249 21.2555 42.1411 21.2764L42.1412 21.2835Z" fill="#4295E4" stroke="#4295E4" stroke-width="0.5"/>
</svg>
