<svg width="32" height="32" viewBox="0 0 32 32" fill="none" xmlns="http://www.w3.org/2000/svg">
<path d="M6.66602 9.33333H25.0527C25.4252 9.33335 25.7937 9.41143 26.1342 9.56254C26.4747 9.71365 26.7798 9.93445 27.0298 10.2107C27.2798 10.4869 27.4691 10.8125 27.5856 11.1664C27.7021 11.5203 27.7431 11.8946 27.706 12.2653L26.906 20.2653C26.8402 20.9233 26.5323 21.5334 26.042 21.9772C25.5517 22.4209 24.914 22.6666 24.2527 22.6667H11.5193C10.9026 22.6669 10.3049 22.4534 9.82794 22.0625C9.35096 21.6716 9.02422 21.1274 8.90335 20.5227L6.66602 9.33333Z" stroke="#454F5B" stroke-width="2" stroke-linecap="round" stroke-linejoin="round"/>
<path d="M6.66601 9.33333L5.58601 5.00933C5.51379 4.721 5.34728 4.46508 5.11296 4.28221C4.87863 4.09934 4.58992 4.00001 4.29268 4H2.66602" stroke="#454F5B" stroke-width="2" stroke-linecap="round" stroke-linejoin="round"/>
<path d="M10.666 28H13.3327" stroke="#454F5B" stroke-width="2" stroke-linecap="round" stroke-linejoin="round"/>
<path d="M21.334 28H24.0006" stroke="#454F5B" stroke-width="2" stroke-linecap="round" stroke-linejoin="round"/>
</svg>
